<svg width="16" height="16" viewBox="0 0 16 16" fill="none" xmlns="http://www.w3.org/2000/svg">
<path d="M14.0667 9.46663L13.9334 9.59996C13.5334 9.99996 13.3334 10.5333 13.3334 11.0666V11.2666C13.3334 12.4 12.4 13.3333 11.2667 13.3333H11.0667C10.5334 13.3333 10 13.5333 9.60002 13.9333L9.46669 14.0666C8.66669 14.8 7.46669 14.8666 6.66669 14.2C6.73335 14.2 6.73335 14.1333 6.80002 14.0666L6.93335 13.9333C7.33335 13.5333 7.86669 13.3333 8.40002 13.3333H8.60002C9.73335 13.3333 10.6667 12.4 10.6667 11.2666V11.0666C10.6667 10.5333 10.8667 9.99996 11.2667 9.59996L11.4 9.46663C12.2 8.66663 12.2 7.33329 11.4 6.5333L11.2667 6.39996C10.8667 5.99996 10.6667 5.46663 10.6667 4.9333V4.73329C10.6667 3.59996 9.73335 2.66663 8.60002 2.66663H8.40002C7.86669 2.66663 7.33335 2.46663 6.93335 2.06663L6.80002 1.9333C6.73335 1.86663 6.73335 1.86663 6.66669 1.79996C7.46669 1.1333 8.66669 1.1333 9.46669 1.9333L9.60002 2.06663C10 2.46663 10.5334 2.66663 11.0667 2.66663H11.2667C12.4 2.66663 13.3334 3.59996 13.3334 4.73329V4.9333C13.3334 5.46663 13.5334 5.99996 13.9334 6.39996L14.0667 6.5333C14.8667 7.33329 14.8667 8.66663 14.0667 9.46663Z" fill="#61DBFB"/>
<path d="M7.99998 2.66665C8.19998 2.66665 8.39998 2.73331 8.53331 2.86665L8.66665 2.99998C9.33331 3.66665 10.1333 3.99998 11.0666 3.99998H11.2666C11.6666 3.99998 12 4.33331 12 4.73331V4.93331C12 5.86665 12.3333 6.66665 13 7.33331L13.1333 7.46665C13.2666 7.59998 13.3333 7.79998 13.3333 7.99998C13.3333 8.19998 13.2666 8.39998 13.1333 8.53331L13 8.66665C12.3333 9.33331 12 10.1333 12 11.0666V11.2666C12 11.6666 11.6666 12 11.2666 12H11.0666C10.1333 12 9.33331 12.3333 8.66665 13L8.53331 13.1333C8.39998 13.2666 8.19998 13.3333 7.99998 13.3333C7.79998 13.3333 7.59998 13.2666 7.46665 13.1333L7.33331 13C6.66665 12.3333 5.86665 12 4.93331 12H4.73331C4.33331 12 3.99998 11.6666 3.99998 11.2666V11.0666C3.99998 10.1333 3.66665 9.33331 2.99998 8.66665L2.86665 8.53331C2.73331 8.39998 2.66665 8.19998 2.66665 7.99998C2.66665 7.79998 2.73331 7.59998 2.86665 7.46665L2.99998 7.33331C3.66665 6.66665 3.99998 5.86665 3.99998 4.93331V4.73331C3.99998 4.33331 4.33331 3.99998 4.73331 3.99998H4.93331C5.86665 3.99998 6.66665 3.66665 7.33331 2.99998L7.46665 2.86665C7.59998 2.73331 7.79998 2.66665 7.99998 2.66665ZM7.99998 1.33331C7.46665 1.33331 6.93331 1.53331 6.53331 1.93331L6.39998 2.06665C5.99998 2.46665 5.46665 2.66665 4.93331 2.66665H4.73331C3.59998 2.66665 2.66665 3.59998 2.66665 4.73331V4.93331C2.66665 5.46665 2.46665 5.99998 2.06665 6.39998L1.93331 6.53331C1.13331 7.33331 1.13331 8.66665 1.93331 9.46665L2.06665 9.59998C2.46665 9.99998 2.66665 10.5333 2.66665 11.0666V11.2666C2.66665 12.4 3.59998 13.3333 4.73331 13.3333H4.93331C5.46665 13.3333 5.99998 13.5333 6.39998 13.9333L6.53331 14.0666C6.93331 14.4666 7.46665 14.6666 7.99998 14.6666C8.53331 14.6666 9.06665 14.4666 9.46665 14.0666L9.59998 13.9333C9.99998 13.5333 10.5333 13.3333 11.0666 13.3333H11.2666C12.4 13.3333 13.3333 12.4 13.3333 11.2666V11.0666C13.3333 10.5333 13.5333 9.99998 13.9333 9.59998L14.0666 9.46665C14.8666 8.66665 14.8666 7.33331 14.0666 6.53331L13.9333 6.39998C13.5333 5.99998 13.3333 5.46665 13.3333 4.93331V4.73331C13.3333 3.59998 12.4 2.66665 11.2666 2.66665H11.0666C10.5333 2.66665 9.99998 2.46665 9.59998 2.06665L9.46665 1.93331C9.06665 1.53331 8.53331 1.33331 7.99998 1.33331Z" fill="#2BA5D7"/>
<path d="M6.66669 7.06665V6.59998C6.66669 5.93331 7.20002 5.33331 7.80002 5.33331H8.40002C9.06669 5.33331 9.53335 5.86665 9.53335 6.59998C9.53335 6.93331 9.40002 7.19998 9.20002 7.39998L8.46669 7.86665C8.13335 8.06665 7.86669 8.46665 7.86669 8.93331V9.33331" stroke="#2BA5D7" stroke-width="1.33333" stroke-miterlimit="10" stroke-linecap="round"/>
<path d="M7.99998 12C7.59998 12 7.33331 11.7334 7.33331 11.3334C7.33331 10.9334 7.59998 10.6667 7.99998 10.6667C8.39998 10.6667 8.66665 10.9334 8.66665 11.3334C8.66665 11.7334 8.39998 12 7.99998 12Z" fill="#2BA5D7"/>
</svg>
